<?xml version="1.0" encoding="utf-8"?>
<!-- Generator: Adobe Illustrator 16.0.0, SVG Export Plug-In . SVG Version: 6.00 Build 0)  -->
<!DOCTYPE svg PUBLIC "-//W3C//DTD SVG 1.1//EN" "http://www.w3.org/Graphics/SVG/1.1/DTD/svg11.dtd" [
	<!ENTITY ns_extend "http://ns.adobe.com/Extensibility/1.0/">
	<!ENTITY ns_ai "http://ns.adobe.com/AdobeIllustrator/10.0/">
	<!ENTITY ns_graphs "http://ns.adobe.com/Graphs/1.0/">
	<!ENTITY ns_vars "http://ns.adobe.com/Variables/1.0/">
	<!ENTITY ns_imrep "http://ns.adobe.com/ImageReplacement/1.0/">
	<!ENTITY ns_sfw "http://ns.adobe.com/SaveForWeb/1.0/">
	<!ENTITY ns_custom "http://ns.adobe.com/GenericCustomNamespace/1.0/">
	<!ENTITY ns_adobe_xpath "http://ns.adobe.com/XPath/1.0/">
]>
<svg version="1.1" id="Laag_1" xmlns:x="&ns_extend;" xmlns:i="&ns_ai;" xmlns:graph="&ns_graphs;"
	 xmlns="http://www.w3.org/2000/svg" xmlns:xlink="http://www.w3.org/1999/xlink" x="0px" y="0px" width="207.239px"
	 height="85.121px" viewBox="-1.072 42.046 207.239 85.121" enable-background="new -1.072 42.046 207.239 85.121"
	 xml:space="preserve">
<metadata>
	<sfw  xmlns="&ns_sfw;">
		<slices></slices>
		<sliceSourceBounds  height="7891.337" width="8084.644" y="102.192" x="-7913.785" bottomLeftOrigin="true"></sliceSourceBounds>
	</sfw>
</metadata>
<g>
	<g>
		<path fill="#E41E18" d="M114.48,118.601c-1.532-1.663-2.703-3.533-2.799-5.848c-0.041-0.977-0.414-1.116-1.244-1.103
			c-2.389,0.043-4.78-0.053-7.166,0.046c-1.086,0.045-1.479-0.376-1.775-1.335c-2.071-6.711-4.199-13.405-6.289-20.111
			c-0.205-0.656-0.426-1.281-1.117-2.112c0,0.887,0,1.483,0,2.079c0,6.644-0.039,13.29,0.033,19.932
			c0.015,1.338-0.367,1.689-1.665,1.635c-2.033-0.086-4.078-0.009-6.113,0.088c-0.901,0.041-1.357-0.246-1.625-1.115
			c-0.959-3.105-1.964-6.197-2.991-9.282c-0.192-0.576-0.202-1.14-0.203-1.719c-0.002-13.696,0.018-27.393-0.034-41.089
			c-0.005-1.312,0.317-1.67,1.629-1.627c3.144,0.103,6.295,0.104,9.439-0.002c1.245-0.042,1.659,0.43,2.028,1.532
			c2.341,6.989,4.768,13.95,7.169,20.918c0.13,0.374,0.29,0.737,0.492,1.246c0.576-0.492,0.344-1.047,0.345-1.492
			c0.02-6.877,0.043-13.755-0.014-20.632c-0.01-1.19,0.251-1.606,1.516-1.568c3.145,0.094,6.297,0.108,9.439-0.005
			c1.349-0.049,1.605,0.368,1.602,1.642c-0.049,14.279-0.031,28.559-0.033,42.838c0,1.105,0,2.212,0,3.607
			c3.229-1.877,6.431-2.056,9.799-0.197c0-0.842,0-1.463,0-2.086c0-14.686,0.018-29.374-0.028-44.061
			c-0.004-1.32,0.26-1.771,1.687-1.745c5.535,0.098,11.072,0.042,16.609,0.058c2.278,0.006,4.547,0.251,6.752,0.779
			c4.316,1.034,7.161,3.645,8.254,8.055c0.781,3.156,0.82,6.342,0.542,9.543c-0.274,3.148-2.063,5.072-5.048,5.959
			c-0.643,0.191-1.275,0.418-1.916,0.63c0.244,0.697,0.812,0.561,1.225,0.674c4.283,1.191,6.623,4.057,6.812,8.428
			c0.189,4.355,0.432,8.735-0.268,13.081c-0.688,4.289-3.226,6.646-7.596,7.088c-7.094,0.719-14.207,0.192-21.31,0.305
			c-1.259,0.021-1.949,0.064-2.013,1.644c-0.084,2.104-1.321,3.796-2.721,5.322C122.085,121.324,118.282,121.32,114.48,118.601z
			 M127.336,112.029c-0.025-3.92-3.197-7.043-7.152-7.044c-4.021-0.001-7.203,3.208-7.158,7.22c0.041,3.91,3.25,7.08,7.16,7.08
			C124.18,119.285,127.361,116.054,127.336,112.029z M139.961,94.693c0,2.206,0.03,4.413-0.016,6.618
			c-0.016,0.882,0.176,1.233,1.171,1.132c2.856-0.296,3.671-1.049,3.739-3.93c0.062-2.553,0.059-5.109-0.006-7.663
			c-0.07-2.814-0.758-3.439-3.498-3.676c-1.023-0.088-1.47,0.085-1.416,1.25C140.027,90.51,139.961,92.604,139.961,94.693z
			 M139.961,72.336c0,1.687-0.01,3.374,0.008,5.061c0.004,0.376-0.15,0.812,0.309,1.087c1.244,0.747,3.945-0.378,4.277-1.835
			c0.497-2.179,0.377-4.401,0.276-6.604c-0.125-2.722-1.115-3.558-3.812-3.656c-0.887-0.032-1.098,0.243-1.072,1.062
			C139.997,69.078,139.961,70.708,139.961,72.336z"/>
		<path fill="#E41E18" d="M51.789,84.516c0,8.565-0.022,17.132,0.027,25.696c0.006,1.174-0.21,1.603-1.497,1.574
			c-4.019-0.092-8.042-0.086-12.061-0.004c-1.277,0.025-1.529-0.416-1.52-1.595c0.053-6.701-0.014-13.402,0.064-20.103
			c0.014-1.231-0.375-1.448-1.468-1.445C32.2,88.649,32.2,88.607,32.2,91.788c0,6.177-0.026,12.354,0.024,18.529
			c0.009,1.11-0.246,1.486-1.424,1.464c-4.077-0.074-8.157-0.058-12.236-0.009c-1.023,0.013-1.415-0.213-1.413-1.34
			c0.035-17.364,0.032-34.729,0.005-52.093c-0.001-0.982,0.261-1.3,1.266-1.288c4.195,0.051,8.392,0.058,12.586-0.004
			c1.06-0.016,1.216,0.388,1.21,1.31c-0.037,5.478,0.026,10.956-0.049,16.432c-0.02,1.41,0.306,1.947,1.817,1.889
			c2.776-0.106,2.779-0.016,2.779-2.717c0-5.127,0.042-10.256-0.03-15.383c-0.018-1.248,0.358-1.555,1.563-1.533
			c3.961,0.074,7.925,0.083,11.886-0.004c1.278-0.028,1.652,0.26,1.641,1.602C51.755,67.267,51.789,75.892,51.789,84.516z"/>
		<path fill="#E41E18" d="M164.385,84.398c0-8.568,0.026-17.136-0.029-25.703c-0.008-1.251,0.222-1.673,1.59-1.659
			c7.285,0.079,14.57,0.07,21.855,0.005c1.254-0.011,1.555,0.348,1.514,1.552c-0.094,2.678-0.09,5.363,0,8.042
			c0.037,1.117-0.32,1.368-1.373,1.333c-2.387-0.078-4.78,0.043-7.166-0.053c-1.19-0.048-1.467,0.362-1.434,1.478
			c0.078,2.562,0.072,5.13,0.004,7.692c-0.029,1.048,0.231,1.426,1.344,1.38c2.213-0.091,4.431,0.015,6.645-0.046
			c0.945-0.026,1.325,0.196,1.297,1.231c-0.07,2.621-0.08,5.247,0.004,7.867c0.036,1.14-0.395,1.364-1.418,1.33
			c-2.096-0.07-4.197,0.044-6.293-0.046c-1.178-0.051-1.627,0.226-1.587,1.507c0.097,3.028,0.078,6.062,0.007,9.091
			c-0.025,1.11,0.244,1.513,1.43,1.474c2.736-0.09,5.479,0.021,8.217-0.055c1.094-0.029,1.395,0.316,1.367,1.385
			c-0.068,2.795-0.059,5.594-0.004,8.391c0.02,0.916-0.252,1.184-1.172,1.18c-7.869-0.033-15.738-0.052-23.604,0.014
			c-1.302,0.01-1.197-0.66-1.196-1.51C164.389,101.65,164.385,93.024,164.385,84.398z"/>
		<path fill="#E41E18" d="M56.142,84.286c0-8.561,0.023-17.123-0.027-25.684c-0.007-1.193,0.267-1.588,1.52-1.562
			c3.959,0.083,7.922,0.101,11.879-0.007c1.38-0.038,1.586,0.423,1.583,1.664c-0.044,13.453-0.006,26.907-0.061,40.36
			c-0.006,1.417,0.281,1.873,1.788,1.825c4.499-0.141,4.5-0.068,5.932,4.25c0.621,1.871,1.198,3.76,1.889,5.604
			c0.376,1.005,0.053,1.201-0.89,1.191c-7.51-0.074-15.021-0.144-22.531-0.149c-1.219-0.001-1.086-0.688-1.085-1.46
			C56.144,101.642,56.142,92.964,56.142,84.286z"/>
		<path fill="none" d="M127.336,112.029c0.025,4.024-3.156,7.256-7.15,7.256c-3.91,0-7.119-3.17-7.16-7.08
			c-0.045-4.012,3.138-7.221,7.158-7.22C124.139,104.986,127.311,108.109,127.336,112.029z"/>
		<path fill="none" d="M139.961,94.693c0-2.09,0.066-4.183-0.025-6.269c-0.053-1.165,0.394-1.338,1.418-1.25
			c2.739,0.237,3.426,0.862,3.498,3.676c0.062,2.553,0.065,5.11,0.004,7.663c-0.067,2.881-0.883,3.634-3.738,3.93
			c-0.995,0.104-1.188-0.25-1.17-1.132C139.991,99.106,139.961,96.899,139.961,94.693z"/>
		<path fill="none" d="M139.961,72.336c0-1.629,0.036-3.259-0.016-4.886c-0.023-0.82,0.188-1.094,1.072-1.062
			c2.697,0.098,3.688,0.935,3.812,3.656c0.102,2.203,0.221,4.426-0.275,6.604c-0.332,1.457-3.035,2.582-4.279,1.835
			c-0.457-0.275-0.303-0.711-0.308-1.087C139.951,75.71,139.961,74.023,139.961,72.336z"/>
	</g>
</g>
</svg>
